{"title":"The Lord of the Rings, The Return of the King 2003 DVDrip Englis","uid":6865415,"size":2829062324,"categoryP":"video","categoryS":"movies","magnet":"?xt=urn:btih:17cc6f944b4fc890c3b2f37601149e82c3374fb2&amp;dn=The+Lord+of+the+Rings%2C+The+Return+of+the+King+2003+DVDrip+Englis&amp;tr=udp%3A%2F%2Ftracker.openbittorrent.com%3A80&amp;tr=udp%3A%2F%2Fopen.demonii.com%3A1337&amp;tr=udp%3A%2F%2Ftracker.coppersurfer.tk%3A6969&amp;tr=udp%3A%2F%2Fexodus.desync.com%3A6969","seeders":1,"leechers":0,"uploader":"Klambake","files":-1,"time":1323084391,"description":"With: Elijah Wood, Ian McKellen and Viggo Mortensen\n\nDe hobbits Sam en Frodo beginnen samen met Gollum aan het laatste deel van hun reis richting Mordor, om daar te proberen in het hol van de leeuw de machtige Ene Ring te vernietigen. De legers van Gondor proberen ondertussen de stad Minas Tirith te beschermen tegen Sauron's legers.\n\nThe former Fellowship of the Ring prepare for the final battle for Middle Earth, while Frodo &amp; Sam approach Mount Doom to destroy the One Ring. \n\n------------------------ Dutch Friends ------------------------\n---------------------------------------------------------------\n- Bezoek ook eens mijn vrienden op: &lt;a href=&quot; http://www.Film-Test.nl&quot; rel=&quot;nofollow&quot; target=&quot;_NEW&quot;&gt; http://www.Film-Test.nl&lt;/a&gt; --\n----- voor mijn Nederlandse Sync. ondertitels ---- en meer ----\n------- http://www.Film-Test.nl ---- voor Films en meer -------\n---------------------------------------------------------------\n\nGeneral:\n\nComplete name                    : The Return of the King\\03The Return of the King.avi\nFormat                           : AVI\nFormat/Info                      : Audio Video Interleave\nFile size                        : 2.63 GiB\nDuration                         : 3h 12mn\nOverall bit rate                 : 1 956 Kbps\n\nVideo:\n\nFormat                           : MPEG-4 Visual\nFormat profile                   : Simple@L3\nFormat settings, BVOP            : No\nFormat settings, QPel            : No\nFormat settings, GMC             : No warppoints\nFormat settings, Matrix          : Default (H.263)\nCodec ID                         : XVID\nCodec ID/Hint                    : XviD\nDuration                         : 3h 12mn\nBit rate                         : 1 497 Kbps\nWidth                            : 720 pixels\nHeight                           : 304 pixels\nDisplay aspect ratio             : 2.35:1\nFrame rate                       : 25.000 fps\nColor space                      : YUV\nChroma subsampling               : 4:2:0\nBit depth                        : 8 bits\nScan type                        : Progressive\nCompression mode                 : Lossy\nBits/(Pixel*Frame)               : 0.274\nStream size                      : 2.02 GiB (77%)\nWriting library                  : XviD 1.1.2 (UTC 2006-11-01)\n\nAudio:\n\nFormat                           : AC-3\nFormat/Info                      : Audio Coding 3\nMode extension                   : CM (complete main)\nCodec ID                         : 2000\nDuration                         : 3h 12mn\nBit rate mode                    : Constant\nBit rate                         : 448 Kbps\nChannel(s)                       : 6 channels\nChannel positions                : Front: L C R, Side: L R, LFE\nSampling rate                    : 48.0 KHz\nBit depth                        : 16 bits\nCompression mode                 : Lossy\nStream size                      : 618 MiB (23%)\nAlignment                        : Aligned on interleaves\nInterleave, duration             : 32 ms (0.80 video frame)\nInterleave, preload duration     : 160 ms\n\n","torrent":{"xt":"urn:btih:17cc6f944b4fc890c3b2f37601149e82c3374fb2","amp;dn":"The+Lord+of+the+Rings%2C+The+Return+of+the+King+2003+DVDrip+Englis","amp;tr":["udp%3A%2F%2Ftracker.openbittorrent.com%3A80","udp%3A%2F%2Fopen.demonii.com%3A1337","udp%3A%2F%2Ftracker.coppersurfer.tk%3A6969","udp%3A%2F%2Fexodus.desync.com%3A6969"],"infoHash":"17cc6f944b4fc890c3b2f37601149e82c3374fb2","infoHashBuffer":{"type":"Buffer","data":[23,204,111,148,75,79,200,144,195,178,243,118,1,20,158,130,195,55,79,178]},"announce":[],"urlList":[]}}